# xmcd CD database file
#
# Track frame offsets:
#	150
#	15841
#	41599
#	62938
#	98203
#	111460
#	124004
#	148532
#	168386
#	189548
#	221525
#	244427
#	258263
#	284538
#	318619
#
# Disc length: 4614 seconds
#
# Revision: 0
# Processed by: cddbd v1.5.1PL0 Copyright (c) Steve Scherf et al.
# Submitted via: CDex 1.51
#
DISCID=e212040f
DTITLE=Various Artist - Savoy Jazz Sampler
DYEAR=2005
DGENRE=Jazz
TTITLE0=Milt Jackson - Softly As In A Morning Sunrise
TTITLE1=Pat Martino - Road Song
TTITLE2=Sonny Stitt - As Time Goes By
TTITLE3=Charles Rouse - Ruby, My Dear
TTITLE4=Howard McGhee - I'm In The Mood For Love
TTITLE5=Johnny Hartman - Just You, Just Me
TTITLE6=Jhon Coltrane and Wilbur Harden - E.F.F.P.H.
TTITLE7=Lee Morgan - P.S. I Love You
TTITLE8=Kenny Burrell - You And The Night And The Music
TTITLE9=Woody Shaw - Little Red's Fantasy
TTITLE10=Larry Coryell - My Shining Hour
TTITLE11=Sadao Watanabe - Here's That Rainy Day
TTITLE12=Red Garland - Will You Srill Be Mine
TTITLE13=Houston Person - I Remember Clifford 
TTITLE14=Eliane Elias - Through The Fire 
EXTD=YEAR: 2005
EXTT0=
EXTT1=
EXTT2=
EXTT3=
EXTT4=
EXTT5=
EXTT6=
EXTT7=
EXTT8=
EXTT9=
EXTT10=
EXTT11=
EXTT12=
EXTT13=
EXTT14=
PLAYORDER=
